<svg xmlns="http://www.w3.org/2000/svg" viewBox="0 0 80 80" width="80" height="80">
  <defs>
    <style>
      .bg { fill: #000000; }
      .accent { fill: #22c55e; }
      .gray { fill: #2d2d2d; }
      .white { fill: #ffffff; }

      @media (prefers-color-scheme: light) {
        .bg { fill: #ffffff; }
        .gray { fill: #e5e7eb; }
        .white { fill: #000000; }
      }
    </style>
  </defs>

  <!-- Outline / Base to provide contrast -->
  <path d="M40 10 C20 10 15 25 15 45 C15 65 25 75 40 75 C55 75 65 65 65 45 C65 25 60 10 40 10 Z" class="gray" />

  <!-- Owl Ears / Horns -->
  <path d="M25 15 L15 25 L25 35 Z" class="gray" />
  <path d="M55 15 L65 25 L55 35 Z" class="gray" />

  <!-- Inner Face Area -->
  <path d="M40 25 C25 25 20 35 20 45 C20 55 30 65 40 65 C50 65 60 55 60 45 C60 35 55 25 40 25 Z" class="bg" />

  <!-- Glowing Eyes (Terminal/Hacker Feel) -->
  <!-- Left Eye -->
  <circle cx="30" cy="40" r="6" class="accent" />
  <!-- Right Eye -->
  <circle cx="50" cy="40" r="6" class="accent" />
  <!-- Inner Eye details (slit) -->
  <rect x="29" y="37" width="2" height="6" class="bg" />
  <rect x="49" y="37" width="2" height="6" class="bg" />

  <!-- Beak -->
  <path d="M37 48 L43 48 L40 55 Z" class="accent" />

  <!-- Wing lines for texture -->
  <path d="M18 40 Q25 55 20 70" fill="none" class="bg" stroke-width="2" />
  <path d="M62 40 Q55 55 60 70" fill="none" class="bg" stroke-width="2" />

  <!-- Subtle >_ terminal prompt on the forehead/crown -->
  <text x="35" y="20" font-family="monospace" font-size="8" font-weight="bold" class="accent">&gt;_</text>
</svg>
